<?xml version="1.0" standalone="no"?>
<!DOCTYPE svg PUBLIC "-//W3C//DTD SVG 20010904//EN"
 "http://www.w3.org/TR/2001/REC-SVG-20010904/DTD/svg10.dtd">
<svg version="1.0" xmlns="http://www.w3.org/2000/svg"
 width="2020.000000pt" height="2020.000000pt" viewBox="0 0 2020.000000 2020.000000"
 preserveAspectRatio="xMidYMid meet">
<metadata>
Created by potrace 1.14, written by Peter Selinger 2001-2017
</metadata>
<g transform="translate(0.000000,2020.000000) scale(0.100000,-0.100000)"
fill="#000000" stroke="none">
<path d="M9770 19444 c-694 -38 -1128 -99 -1790 -255 -412 -97 -587 -145 -880
-241 -868 -284 -1641 -678 -2416 -1233 -501 -359 -804 -613 -1195 -1004 -391
-391 -645 -694 -1004 -1195 -658 -919 -1106 -1867 -1383 -2926 -185 -704 -287
-1293 -334 -1920 -16 -220 -16 -919 0 -1130 45 -568 109 -981 243 -1550 97
-412 145 -588 241 -880 284 -868 678 -1641 1233 -2416 359 -501 613 -804 1004
-1195 391 -391 694 -645 1195 -1004 919 -658 1867 -1106 2926 -1383 705 -185
1296 -288 1920 -334 222 -16 923 -16 1130 0 572 45 981 109 1550 243 412 97
588 145 880 241 868 284 1641 678 2416 1233 501 359 804 613 1195 1004 391
391 645 694 1004 1195 658 919 1106 1867 1383 2926 185 706 283 1267 334 1920
16 211 16 910 0 1130 -41 543 -109 978 -243 1550 -97 412 -145 587 -241 880
-284 868 -678 1641 -1233 2416 -359 501 -613 804 -1004 1195 -391 391 -694
645 -1195 1004 -919 658 -1867 1106 -2926 1383 -700 184 -1269 283 -1905 332
-132 11 -786 21 -905 14z"/>
</g>
</svg>
